<?xml version="1.0" encoding="UTF-8"?>
<svg width="14px" height="13px" viewBox="0 0 14 13" version="1.1" xmlns="http://www.w3.org/2000/svg" xmlns:xlink="http://www.w3.org/1999/xlink">
    <!-- Generator: sketchtool 50.2 (55047) - http://www.bohemiancoding.com/sketch -->
    <title>451CEA41-2714-4F36-86C5-930BF72643BE</title>
    <desc>Created with sketchtool.</desc>
    <defs></defs>
    <g id="Dashboard" stroke="none" stroke-width="1" fill="none" fill-rule="evenodd">
        <g id="13-pool-switch-log" transform="translate(-1016.000000, -319.000000)" fill="#29323C" fill-rule="nonzero">
            <g id="Body" transform="translate(236.000000, 111.000000)">
                <g id="table" transform="translate(0.000000, 136.000000)">
                    <g id="1" transform="translate(20.000000, 69.000000)">
                        <g id="Group" transform="translate(687.000000, 0.000000)">
                            <path d="M86.4700001,4.9477387 C86.4700001,3.84402011 85.62598,3 84.5222614,3 C83.4185428,3 82.5745227,3.84402011 82.5745227,4.9477387 C82.5745227,5.66190956 82.9640704,6.3111558 83.548392,6.63577892 L82.8342212,10.7909548 C82.5745227,10.8558794 82.3148242,10.9208041 82.0551257,11.1155779 L80.4969347,10.0118593 C80.8864825,8.77829149 79.9126131,7.54472364 78.6790453,7.54472364 C77.5753267,7.54472364 76.7313066,8.38874375 76.7313066,9.49246235 C76.7313066,9.88201009 76.8611558,10.2715578 77.1208543,10.5961809 L76.0171357,12.1543719 C74.7186432,11.7648242 73.55,12.8036181 73.55,14.037186 C73.55,15.1409046 74.3940201,15.9849247 75.4977387,15.9849247 C76.6014573,15.9849247 77.4454774,15.1409046 77.4454774,14.037186 C77.4454774,13.6476383 77.3156282,13.2580905 77.1208543,12.9334674 L78.2245729,11.3752764 C78.7439699,11.5051257 79.3282915,11.4402011 79.7827639,11.0506533 L81.3409548,12.1543719 C81.2760302,12.3491458 81.2760302,12.5439197 81.2760302,12.7386935 C81.2760302,13.8424121 82.1200503,14.6864322 83.2237689,14.6864322 C84.3274875,14.6864322 85.1715076,13.8424121 85.1715076,12.7386935 C85.1715076,12.0245227 84.7819599,11.3752764 84.1976383,11.0506533 L84.9118091,6.89547741 C85.7558292,6.70070354 86.4700001,5.92160806 86.4700001,4.9477387 Z M84.5222614,4.29849247 C84.9118091,4.29849247 85.1715076,4.55819096 85.1715076,4.9477387 C85.1715076,5.33728645 84.9118091,5.59698494 84.5222614,5.59698494 C84.1327136,5.59698494 83.8730151,5.33728645 83.8730151,4.9477387 C83.8730151,4.55819096 84.1327136,4.29849247 84.5222614,4.29849247 Z M75.4328141,14.6864322 C75.0432663,14.6864322 74.7835678,14.4267337 74.7835678,14.037186 C74.7835678,13.6476383 75.0432663,13.3879398 75.4328141,13.3879398 C75.8223618,13.3879398 76.0820603,13.6476383 76.0820603,14.037186 C76.0820603,14.4267337 75.8223618,14.6864322 75.4328141,14.6864322 Z M78.2894975,10.0118593 C78.0947236,9.88201009 78.029799,9.68723622 78.029799,9.49246235 C78.029799,9.10291461 78.2894975,8.84321611 78.6790453,8.84321611 C79.068593,8.84321611 79.3282915,9.10291461 79.3282915,9.49246235 C79.3282915,10.0118593 78.7439699,10.3364825 78.2894975,10.0118593 Z M83.2237689,13.3879398 C82.8342212,13.3879398 82.5745227,13.1282413 82.5745227,12.7386935 C82.5745227,12.3491458 82.9640704,12.0245227 83.3536181,12.0894473 C83.6782413,12.1543719 83.8730151,12.4140704 83.8730151,12.7386935 C83.8730151,13.1282413 83.548392,13.3879398 83.2237689,13.3879398 Z" id="Shape"></path>
                        </g>
                    </g>
                </g>
            </g>
        </g>
    </g>
</svg>